<svg width="120" height="120" viewBox="0 0 120 120" fill="none" xmlns="http://www.w3.org/2000/svg">
<path d="M50 45C50 47.7614 47.7614 50 45 50C42.2386 50 40 47.7614 40 45C40 42.2386 42.2386 40 45 40C47.7614 40 50 42.2386 50 45Z" fill="#2D3D50"/>
<path d="M80 45C80 47.7614 77.7614 50 75 50C72.2386 50 70 47.7614 70 45C70 42.2386 72.2386 40 75 40C77.7614 40 80 42.2386 80 45Z" fill="#2D3D50"/>
<path d="M40 80H80M110 60C110 87.6142 87.6142 110 60 110C32.3858 110 10 87.6142 10 60C10 32.3858 32.3858 10 60 10C87.6142 10 110 32.3858 110 60Z" stroke="#2D3D50" stroke-width="7.5" stroke-linecap="round"/>
</svg>
