<svg width="54" height="54" viewBox="0 0 54 54" fill="none" xmlns="http://www.w3.org/2000/svg">
<path d="M11.0718 43.7578C9.90353 34.7162 11.0212 25.4491 17.1445 18.139C22.6715 11.5408 30.7124 9.70574 35.2644 18.3639C37.4192 22.4625 37.2344 28.7624 33.3496 31.8132C29.0215 35.212 25.4135 28.9642 25.285 25.3143C24.9847 16.7894 31.3079 8.22009 40.5924 7.14447C51.5873 5.8707 51.1328 17.2484 51.0625 17.2205" stroke="#2D3D50" stroke-width="1.296" stroke-miterlimit="1.5" stroke-linecap="round" stroke-linejoin="round"/>
<path d="M2.87023 37.7662C3.85931 37.9624 4.65853 38.5458 5.48592 39.087C8.20291 40.8638 10.5611 43.646 11.3248 46.875C11.6334 43.2939 13.2411 38.7487 16.627 37.0751" stroke="#2D3D50" stroke-width="1.296" stroke-miterlimit="1.5" stroke-linecap="round" stroke-linejoin="round"/>
</svg>
