<?xml version="1.0" encoding="UTF-8"?><svg id="a" xmlns="http://www.w3.org/2000/svg" viewBox="0 0 497.22 610.24"><path d="M436.66,224.93c-2.82-4.37-6.4-3.95-9.14.74-17.88,30.41-35.78,60.82-54.66,92.92,49.87,6.48,39.34-3.83,34.23,50.98-10.95,117.34-107.93,215.09-223.28,184.55C35.21,521.8-1.42,317.9,118.91,232.91c2.45-1.84,4.92-5.63,4.92-8.5,1.26-37.57-4.58-76.57,2.61-113.54,21.46-89.79,168.96-87.39,178.86,7.21,2.84,33.23,1.69,66.8,1.69,100.24-6.35,14.38-39.15,11.4-53.16,17.9-279.71,70.01-80.21,414.54,75.62,212.12,36.26-71.25,16.01-222.25,22.73-306.11C358.15,52.6,271.34-19.18,182.24,4.6c-54.16,13.4-102.19,63.85-103.42,125.31-3.11,27.65,5.37,59.24-7.98,84.44C.48,291.52-23.82,389.89,27.15,484.41c132.89,231.6,421.41,123.38,422.2-160.9h47.87c-16.59-33.99-41.08-65.56-60.56-98.58ZM223.04,455.62c-50.65.26-80.3-50.14-62.33-94.91,26.74-60.52,105.49-75.68,139.72-79.43.26,67.04,11.81,171.91-77.39,174.34Z" style="fill:#00aeef; stroke-width:0px;"/></svg>