<svg width="112" height="100" viewBox="0 0 112 100" fill="none" xmlns="http://www.w3.org/2000/svg">
<path fill-rule="evenodd" clip-rule="evenodd" d="M11.154 26.5616C-16.0037 66.3283 9.36308 102.29 55.621 99.2309C105.684 95.8733 117.621 52.3015 109.339 32.9035C97.7006 5.74564 81.6597 -0.0738741 55.4718 0.000703863C40.923 0.075337 27.7173 2.31362 11.154 26.5616ZM90.6129 71.5509C76.437 98.5592 29.5076 100.648 16.8987 74.8335C5.63269 51.7795 25.7774 7.08859 56.6656 6.71554C85.4648 6.34248 110.608 33.5002 90.6129 71.5509ZM78.8992 41.4833C75.9144 43.8709 75.3178 43.7963 70.9155 40.663C68.7522 39.0957 65.7674 40.5133 65.7674 43.05C65.7674 49.3173 80.8388 50.9586 86.2852 45.2885C91.2095 40.1404 84.7931 36.7833 78.8992 41.4833ZM41.8925 41.3342C41.2959 41.6325 39.8784 42.4534 38.7592 43.1997C36.8942 44.4675 36.5958 44.4675 34.5065 43.3489C29.2093 40.5878 24.3598 42.9009 27.941 46.4823C32.0445 50.5857 44.8773 49.3173 47.0406 44.6173C48.309 42.0805 44.9519 39.9166 41.8925 41.3342ZM50.8458 53.3462C37.6399 56.405 30.5523 72.073 42.3406 72.073C46.2203 72.073 47.0406 71.4018 49.2791 66.4774C53.9791 56.0321 68.7522 58.0468 68.7522 69.1633C68.7522 72.073 74.3477 73.864 77.78 72.073C82.1072 69.7605 75.0195 58.4943 67.0363 54.9129C63.1566 53.197 55.0238 52.4507 50.8458 53.3462Z" fill="#2D3D50"/>
</svg>
